<mxfile host="Electron" modified="2023-04-05T19:48:18.431Z" agent="Mozilla/5.0 (Windows NT 10.0; Win64; x64) AppleWebKit/537.36 (KHTML, like Gecko) draw.io/21.1.2 Chrome/106.0.5249.199 Electron/21.4.3 Safari/537.36" etag="poXtwDXQSEJOCJ6qvRAX" version="21.1.2" type="device">
  <diagram name="Page-1" id="P8YhvIADPvV29swbN4xH">
    <mxGraphModel dx="1434" dy="844" grid="1" gridSize="10" guides="1" tooltips="1" connect="1" arrows="1" fold="1" page="1" pageScale="1" pageWidth="1169" pageHeight="827" math="0" shadow="0">
      <root>
        <mxCell id="0" />
        <mxCell id="1" parent="0" />
        <mxCell id="M3bBHqCon_yVhuw_0qJf-5" value="" style="group" vertex="1" connectable="0" parent="1">
          <mxGeometry x="60" y="200" width="940" height="380" as="geometry" />
        </mxCell>
        <mxCell id="Wqb625Jt-_VROzE7ZddV-1" value="" style="rounded=0;whiteSpace=wrap;html=1;movable=1;resizable=1;rotatable=1;deletable=1;editable=1;locked=0;connectable=1;" parent="M3bBHqCon_yVhuw_0qJf-5" vertex="1">
          <mxGeometry x="20" y="74.5" width="40" height="160" as="geometry" />
        </mxCell>
        <mxCell id="Wqb625Jt-_VROzE7ZddV-2" value="" style="whiteSpace=wrap;html=1;aspect=fixed;" parent="M3bBHqCon_yVhuw_0qJf-5" vertex="1">
          <mxGeometry x="140" y="74.5" width="160" height="160" as="geometry" />
        </mxCell>
        <mxCell id="Wqb625Jt-_VROzE7ZddV-16" value="" style="shape=cube;whiteSpace=wrap;html=1;boundedLbl=1;backgroundOutline=1;darkOpacity=0.05;darkOpacity2=0.1;size=10;" parent="M3bBHqCon_yVhuw_0qJf-5" vertex="1">
          <mxGeometry x="380" y="69.5" width="170" height="170" as="geometry" />
        </mxCell>
        <mxCell id="Wqb625Jt-_VROzE7ZddV-32" value="" style="group" parent="M3bBHqCon_yVhuw_0qJf-5" vertex="1" connectable="0">
          <mxGeometry x="630" width="310" height="309" as="geometry" />
        </mxCell>
        <mxCell id="Wqb625Jt-_VROzE7ZddV-18" value="" style="shape=cube;whiteSpace=wrap;html=1;boundedLbl=1;backgroundOutline=1;darkOpacity=0.05;darkOpacity2=0.1;size=10;" parent="Wqb625Jt-_VROzE7ZddV-32" vertex="1">
          <mxGeometry width="170" height="170" as="geometry" />
        </mxCell>
        <mxCell id="Wqb625Jt-_VROzE7ZddV-19" value="" style="shape=cube;whiteSpace=wrap;html=1;boundedLbl=1;backgroundOutline=1;darkOpacity=0.05;darkOpacity2=0.1;size=10;" parent="Wqb625Jt-_VROzE7ZddV-32" vertex="1">
          <mxGeometry x="20" y="20" width="170" height="170" as="geometry" />
        </mxCell>
        <mxCell id="Wqb625Jt-_VROzE7ZddV-20" value="" style="shape=cube;whiteSpace=wrap;html=1;boundedLbl=1;backgroundOutline=1;darkOpacity=0.05;darkOpacity2=0.1;size=10;" parent="Wqb625Jt-_VROzE7ZddV-32" vertex="1">
          <mxGeometry x="20" y="20" width="170" height="170" as="geometry" />
        </mxCell>
        <mxCell id="Wqb625Jt-_VROzE7ZddV-22" value="" style="shape=cube;whiteSpace=wrap;html=1;boundedLbl=1;backgroundOutline=1;darkOpacity=0.05;darkOpacity2=0.1;size=10;" parent="Wqb625Jt-_VROzE7ZddV-32" vertex="1">
          <mxGeometry x="40" y="40" width="170" height="170" as="geometry" />
        </mxCell>
        <mxCell id="Wqb625Jt-_VROzE7ZddV-23" value="" style="shape=cube;whiteSpace=wrap;html=1;boundedLbl=1;backgroundOutline=1;darkOpacity=0.05;darkOpacity2=0.1;size=10;" parent="Wqb625Jt-_VROzE7ZddV-32" vertex="1">
          <mxGeometry x="60" y="60" width="170" height="170" as="geometry" />
        </mxCell>
        <mxCell id="Wqb625Jt-_VROzE7ZddV-24" value="" style="shape=cube;whiteSpace=wrap;html=1;boundedLbl=1;backgroundOutline=1;darkOpacity=0.05;darkOpacity2=0.1;size=10;" parent="Wqb625Jt-_VROzE7ZddV-32" vertex="1">
          <mxGeometry x="60" y="60" width="170" height="170" as="geometry" />
        </mxCell>
        <mxCell id="Wqb625Jt-_VROzE7ZddV-25" value="" style="shape=cube;whiteSpace=wrap;html=1;boundedLbl=1;backgroundOutline=1;darkOpacity=0.05;darkOpacity2=0.1;size=10;" parent="Wqb625Jt-_VROzE7ZddV-32" vertex="1">
          <mxGeometry x="80" y="80" width="170" height="170" as="geometry" />
        </mxCell>
        <mxCell id="Wqb625Jt-_VROzE7ZddV-26" value="" style="shape=cube;whiteSpace=wrap;html=1;boundedLbl=1;backgroundOutline=1;darkOpacity=0.05;darkOpacity2=0.1;size=10;" parent="Wqb625Jt-_VROzE7ZddV-32" vertex="1">
          <mxGeometry x="100" y="100" width="170" height="170" as="geometry" />
        </mxCell>
        <mxCell id="Wqb625Jt-_VROzE7ZddV-27" value="" style="shape=cube;whiteSpace=wrap;html=1;boundedLbl=1;backgroundOutline=1;darkOpacity=0.05;darkOpacity2=0.1;size=10;" parent="Wqb625Jt-_VROzE7ZddV-32" vertex="1">
          <mxGeometry x="100" y="100" width="170" height="170" as="geometry" />
        </mxCell>
        <mxCell id="Wqb625Jt-_VROzE7ZddV-29" value="" style="shape=cube;whiteSpace=wrap;html=1;boundedLbl=1;backgroundOutline=1;darkOpacity=0.05;darkOpacity2=0.1;size=10;" parent="Wqb625Jt-_VROzE7ZddV-32" vertex="1">
          <mxGeometry x="120" y="119" width="170" height="170" as="geometry" />
        </mxCell>
        <mxCell id="Wqb625Jt-_VROzE7ZddV-30" value="" style="shape=cube;whiteSpace=wrap;html=1;boundedLbl=1;backgroundOutline=1;darkOpacity=0.05;darkOpacity2=0.1;size=10;" parent="Wqb625Jt-_VROzE7ZddV-32" vertex="1">
          <mxGeometry x="140" y="139" width="170" height="170" as="geometry" />
        </mxCell>
        <mxCell id="Wqb625Jt-_VROzE7ZddV-31" value="" style="shape=cube;whiteSpace=wrap;html=1;boundedLbl=1;backgroundOutline=1;darkOpacity=0.05;darkOpacity2=0.1;size=10;" parent="Wqb625Jt-_VROzE7ZddV-32" vertex="1">
          <mxGeometry x="140" y="139" width="170" height="170" as="geometry" />
        </mxCell>
        <mxCell id="Wqb625Jt-_VROzE7ZddV-39" value="&lt;font style=&quot;font-size: 24px;&quot;&gt;n = 1&lt;/font&gt;" style="text;html=1;align=center;verticalAlign=middle;resizable=0;points=[];autosize=1;strokeColor=none;fillColor=none;" parent="M3bBHqCon_yVhuw_0qJf-5" vertex="1">
          <mxGeometry y="340" width="80" height="40" as="geometry" />
        </mxCell>
        <mxCell id="M3bBHqCon_yVhuw_0qJf-1" value="&lt;font style=&quot;font-size: 24px;&quot;&gt;n = 2&lt;/font&gt;" style="text;html=1;align=center;verticalAlign=middle;resizable=0;points=[];autosize=1;strokeColor=none;fillColor=none;" vertex="1" parent="M3bBHqCon_yVhuw_0qJf-5">
          <mxGeometry x="180" y="340" width="80" height="40" as="geometry" />
        </mxCell>
        <mxCell id="M3bBHqCon_yVhuw_0qJf-2" value="&lt;font style=&quot;font-size: 24px;&quot;&gt;n = 3&lt;/font&gt;" style="text;html=1;align=center;verticalAlign=middle;resizable=0;points=[];autosize=1;strokeColor=none;fillColor=none;" vertex="1" parent="M3bBHqCon_yVhuw_0qJf-5">
          <mxGeometry x="425" y="340" width="80" height="40" as="geometry" />
        </mxCell>
        <mxCell id="M3bBHqCon_yVhuw_0qJf-4" value="&lt;font style=&quot;font-size: 24px;&quot;&gt;n = 4&lt;/font&gt;" style="text;html=1;align=center;verticalAlign=middle;resizable=0;points=[];autosize=1;strokeColor=none;fillColor=none;" vertex="1" parent="M3bBHqCon_yVhuw_0qJf-5">
          <mxGeometry x="745" y="340" width="80" height="40" as="geometry" />
        </mxCell>
      </root>
    </mxGraphModel>
  </diagram>
</mxfile>
